<svg width="289" height="280" viewBox="0 0 289 280" fill="none" xmlns="http://www.w3.org/2000/svg">
<rect width="289" height="280" rx="49" fill="white"/>
<path fill-rule="evenodd" clip-rule="evenodd" d="M202.187 173.551C202.187 202.148 188.292 225.683 165.994 235.866C143.446 246.164 116.725 240.794 95.8276 220.686L120.172 195.385C132.301 207.055 143.896 207.359 151.407 203.929C159.169 200.384 167.076 190.787 167.076 173.551V164.521C156.237 174.844 141.567 181.181 125.416 181.181C92.0493 181.181 65 154.132 65 120.765C65 87.3978 92.0493 60.3484 125.416 60.3484C142.804 60.3484 158.476 67.6935 169.499 79.45C173.366 65.761 181.714 53.5628 193.467 44.9741L201.642 38.9999L222.358 67.3483L214.183 73.3225C206.644 78.8318 202.187 87.6086 202.187 96.9461V173.551ZM150.722 120.765C150.722 106.789 139.392 95.4595 125.416 95.4595C111.441 95.4595 100.111 106.789 100.111 120.765C100.111 134.741 111.441 146.07 125.416 146.07C139.392 146.07 150.722 134.741 150.722 120.765Z" fill="black"/>
</svg>
